<mxfile host="app.diagrams.net" modified="2024-04-21T18:19:31.963Z" agent="Mozilla/5.0 (X11; Linux x86_64) AppleWebKit/537.36 (KHTML, like Gecko) Chrome/121.0.0.0 Safari/537.36" version="24.2.7" etag="312-4WZtmeCpjGKb6Zcb" type="github">
  <diagram name="Page-1" id="-adSy4YP4hVv4srbqETO">
    <mxGraphModel>
      <root>
        <mxCell id="0" />
        <mxCell id="1" parent="0" />
      </root>
    </mxGraphModel>
  </diagram>
</mxfile>
